<svg id="Layer_1" data-name="Layer 1" xmlns="http://www.w3.org/2000/svg" xmlns:xlink="http://www.w3.org/1999/xlink" viewBox="0 0 512 513"><defs><style>.cls-1,.cls-2{stroke:#000;}.cls-1{stroke-miterlimit:10;}.cls-2{fill:#b1060f;stroke-miterlimit:13.1;stroke-width:3.27px;}.cls-3{fill:url(#radial-gradient);}.cls-4{fill:#e50914;}</style><radialGradient id="radial-gradient" cx="17742.76" cy="541.91" r="56.77" gradientTransform="matrix(0.23, -0.08, 2.94, 8.48, -5444.26, -2910.35)" gradientUnits="userSpaceOnUse"><stop offset="0"/><stop offset="1" stop-opacity="0"/></radialGradient></defs><title>netflix-app</title><rect class="cls-1" x="0.5" y="0.5" width="511" height="512"/><g id="layer1"><g id="g4182"><g id="g5747"><path id="path4155" class="cls-2" d="M289.34,74.3,289.19,159,289,243.68l-7-19.66V224l-9,188.53c8.87,25,13.61,38.36,13.66,38.41s5.09.35,11.19.65c18.45.91,41.34,2.88,58.73,5.05,4,.5,7.46.75,7.71.55s.3-86.4.25-191.61L364.45,74.3Z"/><path id="path4157" class="cls-2" d="M153.49,74.05V265.5c0,105.31.1,191.56.25,191.71s6.66-.5,14.52-1.36,18.7-2,24.1-2.42c8.26-.71,33.06-2.27,35.89-2.32.85,0,.9-4.28,1-81.11l.16-81.11,6,16.94c.91,2.62,1.21,3.43,2.12,6l9-188.48c-1.92-5.39-.91-2.57-3.08-8.72-7.36-20.82-13.61-38.41-13.86-39.22L229.1,74H153.49Z"/><path id="path5715" class="cls-2" d="M289.34,74.3,289.19,159,289,243.68l-7-19.66V224l-9,188.53c8.87,25,13.61,38.36,13.66,38.41s5.09.35,11.19.65c18.45.91,41.34,2.88,58.73,5.05,4,.5,7.46.75,7.71.55s.3-86.4.25-191.61L364.45,74.3Z"/><path id="path5717" class="cls-2" d="M153.49,74.05V265.5c0,105.31.1,191.56.25,191.71s6.66-.5,14.52-1.36,18.7-2,24.1-2.42c8.26-.71,33.06-2.27,35.89-2.32.85,0,.9-4.28,1-81.11l.16-81.11,6,16.94c.91,2.62,1.21,3.43,2.12,6l9-188.48c-1.92-5.39-.91-2.57-3.08-8.72-7.36-20.82-13.61-38.41-13.86-39.22L229.1,74H153.49Z"/><path id="path5719" class="cls-3" d="M153.49,74.05V181.52L229.2,382.35c0-4.58,0-7.1.05-12.35l.16-81.11,6,16.94c33.27,94.37,51.17,145,51.27,145.08s5.09.35,11.19.65c18.45.91,41.34,2.88,58.73,5.05,4,.5,7.46.75,7.71.55s.25-42.39.25-102L289.24,138.47,289.19,159,289,243.68l-7-19.66c-6.8-19.21-11.34-32.06-38.71-109.39C236,93.81,229.76,76.22,229.51,75.41L229,74H153.49v0Z"/><path id="path5721" class="cls-4" d="M153.49,74.05l75.87,215v-.11l6,16.94c33.32,94.32,51.22,144.93,51.32,145s5.09.35,11.19.65c18.45.91,41.34,2.88,58.73,5.05,4,.5,7.46.75,7.66.55L289,243.63v.05l-7-19.66c-6.8-19.21-11.34-32.06-38.71-109.39C236,93.81,229.76,76.22,229.51,75.41L229,74H191.25l-37.76,0Z"/></g></g></g></svg>